<svg xmlns="http://www.w3.org/2000/svg" width="22" height="28"><path fill="#fff" d="M22 1.75v25.008c0 .506-.22.91-.604 1.111a1.19 1.19 0 01-.55.13c-.258 0-.533-.074-.803-.219l-8.051-4.352c-.529-.286-1.456-.286-1.984 0L1.957 27.78c-.476.257-.969.29-1.353.09C.22 27.667 0 27.263 0 26.757V1.75C0 .785.858 0 1.913 0h18.174C21.142 0 22 .785 22 1.75zm-.957 25.008V1.75c0-.483-.429-.876-.956-.876v.876c0 .241-.214.436-.478.436s-.479-.195-.479-.436V.874H2.87v.876c0 .241-.215.436-.479.436s-.478-.195-.478-.436V.874c-.527 0-.957.393-.957.876v25.008c0 .213.066.322.122.35.056.03.193.026.392-.081l8.051-4.353c.415-.223.947-.336 1.479-.336.532 0 1.064.113 1.479.336l8.05 4.353c.2.107.337.111.393.082.056-.029.121-.138.121-.351zM2.87 3.5v.875c0 .241-.214.437-.478.437s-.478-.196-.478-.437V3.5c0-.242.214-.438.478-.438s.478.196.478.438zm0 2.624v18.814c0 .24-.214.437-.478.437s-.478-.197-.478-.437V6.124c0-.241.214-.437.478-.437s.478.196.478.437zM20.087 3.5v.875c0 .241-.214.437-.478.437s-.479-.196-.479-.437V3.5c0-.242.215-.438.479-.438s.478.196.478.438zm0 2.624v18.814c0 .24-.214.437-.478.437s-.479-.197-.479-.437V6.124c0-.241.215-.437.479-.437s.478.196.478.437z"/></svg>